PathFileType	4	(X/Y/Z)	/Users/itak/Documents/Research/Walk-IL/dataset/trc/00276_00010.trc
DataRate	CameraRate	NumFrames	NumMarkers	Units	OrigDataRate	OrigDataStartFrame	OrigNumFrames
100.000000	100.000000	4	54	mm	100.000000	61	493
Frame#	Time	RPSI			LPSI			L3			STRN			T10			C7			CLAV			RBAK			LBAK			LSHO			LUPA			LAEL			LAOL			LWTS			LWPS			LFRA			LHPS			LHTS			RSHO			RUPA			RAEL			RAOL			RWTS			RWPS			RFRA			RIFD			RHTS			RHPS			RBHD			LFHD			RFHD			LBHD			LHIP			RHIP			RASI			LKNE			LTHI			LANK			LTIP			LTOE			LMT1			LMT5			LHEE			RKNE			RTHI			RANK			RTIP			RTOE			RMT1			RMT5			RHEE			LIFD			LASI			*53			
		X1	Y1	Z1	X2	Y2	Z2	X3	Y3	Z3	X4	Y4	Z4	X5	Y5	Z5	X6	Y6	Z6	X7	Y7	Z7	X8	Y8	Z8	X9	Y9	Z9	X10	Y10	Z10	X11	Y11	Z11	X12	Y12	Z12	X13	Y13	Z13	X14	Y14	Z14	X15	Y15	Z15	X16	Y16	Z16	X17	Y17	Z17	X18	Y18	Z18	X19	Y19	Z19	X20	Y20	Z20	X21	Y21	Z21	X22	Y22	Z22	X23	Y23	Z23	X24	Y24	Z24	X25	Y25	Z25	X26	Y26	Z26	X27	Y27	Z27	X28	Y28	Z28	X29	Y29	Z29	X30	Y30	Z30	X31	Y31	Z31	X32	Y32	Z32	X33	Y33	Z33	X34	Y34	Z34	X35	Y35	Z35	X36	Y36	Z36	X37	Y37	Z37	X38	Y38	Z38	X39	Y39	Z39	X40	Y40	Z40	X41	Y41	Z41	X42	Y42	Z42	X43	Y43	Z43	X44	Y44	Z44	X45	Y45	Z45	X46	Y46	Z46	X47	Y47	Z47	X48	Y48	Z48	X49	Y49	Z49	X50	Y50	Z50	X51	Y51	Z51	X52	Y52	Z52	X53	Y53	Z53	X54	Y54	Z54	

62	0.61	832.1199340820312	989.0796508789062	100.8530731201172	839.6214599609375	981.3908081054688	-73.94998931884766	855.0751342773438	1063.497680664062	12.11443901062012	1112.86962890625	1240.257934570312	13.29014015197754	845.2068481445312	1184.869018554688	9.758391380310059	894.9326782226562	1425.751098632812	-12.16489315032959	1053.593017578125	1343.635620117188	4.208277225494385	837.4765625	1294.98193359375	69.67503356933594	883.7376708984375	1387.711669921875	-115.825798034668	977.1605224609375	1392.143798828125	-162.4372253417969	947.9038696289062	1276.915649414062	-239.5811920166016	943.6553344726562	1074.514770507812	-256.1783447265625	875.7119750976562	1063.47802734375	-201.90869140625	1032.722412109375	860.6539916992188	-201.5157470703125	1003.728210449219	846.2067260742188	-265.5072631835938	962.054931640625	972.4103393554688	-263.4312133789062	1015.207153320312	758.8611450195312	-261.7367553710938	1065.985229492188	765.0520629882812	-220.2658538818359	959.7672729492188	1410.010009765625	150.5160369873047	950.0689086914062	1356.091674804688	219.5894165039062	927.97607421875	1096.99560546875	289.9053955078125	891.641357421875	1082.869750976562	200.6262664794922	1035.700317382812	876.37255859375	250.0887756347656	993.19091796875	872.0272216796875	323.7026977539062	953.2444458007812	1030.423583984375	306.0712280273438	1047.344604492188	695.83837890625	251.7985687255859	1072.987060546875	764.065673828125	272.5360412597656	1023.431579589844	760.748046875	321.2808532714844	917.3748168945312	1577.268432617188	66.00173950195312	1083.916748046875	1622.583129882812	-56.87770080566406	1086.237060546875	1617.013549804688	35.13742065429688	915.1415405273438	1574.227172851562	-79.88504791259766	919.0944213867188	936.0940551757812	-165.446044921875	930.7210083007812	942.9993896484375	206.718994140625	1052.860961914062	951.9734497070312	141.1642303466797	1032.548950195312	477.7143859863281	-148.8506317138672	1009.051452636719	617.18359375	-165.7711029052734	899.8597412109375	42.53548049926758	-141.4742584228516	963.2906494140625	254.9727172851562	-157.4775695800781	1107.984130859375	26.49459457397461	-82.40090942382812	1034.900146484375	20.42732429504395	-43.08992767333984	1023.318664550781	35.30649566650391	-153.3068695068359	853.7376098632812	36.38420104980469	-83.07412719726562	1004.890747070312	472.3743286132812	159.1430206298828	1012.735046386719	736.3408203125	199.0006408691406	911.3067626953125	37.77915191650391	116.3819808959961	1009.836303710938	346.1924133300781	141.5179748535156	1110.167602539062	31.9193286895752	72.97080993652344	1053.587524414062	28.92676734924316	30.78682899475098	1014.381652832031	28.41611099243164	141.5444030761719	861.4247436523438	35.19689559936523	64.35276031494141	1053.119995117188	673.8524169921875	-198.6988220214844	1049.860961914062	950.3617553710938	-110.0726013183594	nan	nan	nan	
63	0.62	830.2507934570312	988.83203125	101.5517425537109	837.8992919921875	980.8807373046875	-73.18805694580078	853.4044189453125	1063.54541015625	13.04759693145752	1111.924438476562	1239.690673828125	13.93897819519043	843.7799072265625	1185.054077148438	10.85865688323975	894.4766845703125	1425.725219726562	-11.17636203765869	1052.887084960938	1343.2197265625	4.852835178375244	836.7412109375	1295.2978515625	70.73066711425781	882.7948608398438	1387.578735351562	-114.8109893798828	976.0957641601562	1391.655883789062	-161.6426696777344	945.8538208007812	1276.628295898438	-238.6499786376953	940.2952270507812	1074.38671875	-255.2640991210938	872.5174560546875	1063.621337890625	-200.7115936279297	1029.502197265625	860.6170043945312	-200.8346710205078	1000.260437011719	846.0678100585938	-264.6677856445312	958.5448608398438	972.3174438476562	-262.5619201660156	1011.825500488281	758.739501953125	-260.8305053710938	1062.811401367188	765.0673828125	-219.6222991943359	959.456298828125	1410.01513671875	151.2560424804688	949.7301025390625	1356.146118164062	220.4104156494141	926.8726806640625	1097.114990234375	290.7828369140625	890.3161010742188	1083.148193359375	201.5623931884766	1033.824462890625	876.1743774414062	250.7124328613281	991.4684448242188	871.949462890625	324.4218444824219	952.0252685546875	1030.46533203125	306.9241638183594	1045.123901367188	695.596923828125	252.4792175292969	1070.916381835938	763.7997436523438	273.13330078125	1021.378295898438	760.6002197265625	321.9502563476562	916.6527709960938	1576.830444335938	66.3465576171875	1083.024780273438	1622.635009765625	-56.52544021606445	1085.39453125	1617.032104492188	35.41136169433594	914.3604125976562	1573.814331054688	-79.55745697021484	917.6640014648438	935.5545043945312	-164.5594482421875	928.9601440429688	942.9876098632812	207.5530242919922	1051.020874023438	951.8944091796875	142.0319213867188	1033.602172851562	477.7184753417969	-148.4417114257812	1008.760986328125	617.1834106445312	-165.2361907958984	899.9385986328125	42.88037109375	-141.4214019775391	963.916259765625	255.1502075195312	-157.3195648193359	1108.037109375	26.43931579589844	-82.38550567626953	1034.926391601562	20.40874290466309	-43.09698867797852	1023.3994140625	35.36844635009766	-153.2999420166016	853.82861328125	36.77893829345703	-83.00350189208984	1003.76953125	472.4175720214844	159.6876068115234	1011.166320800781	736.3150634765625	199.8561401367188	911.2984008789062	37.78280639648438	116.3919143676758	1009.060302734375	346.2337646484375	141.7994842529297	1110.173217773438	31.93170356750488	72.9822998046875	1053.571655273438	28.91065788269043	30.77954292297363	1014.3720703125	28.45944595336914	141.5100250244141	861.4298706054688	35.13300323486328	64.36031341552734	1050.451293945312	673.6018676757812	-197.6793823242188	1048.109008789062	950.098388671875	-109.1953964233398	nan	nan	nan	
64	0.63	828.3228759765625	988.585205078125	102.2668228149414	836.0801391601562	980.343994140625	-72.42081451416016	851.7085571289062	1063.651977539062	14.02102947235107	1110.938232421875	1239.09765625	14.55862426757812	842.2733154296875	1185.251220703125	12.00362205505371	894.0142211914062	1425.697509765625	-10.14657878875732	1052.171508789062	1342.781616210938	5.495847702026367	836.0213623046875	1295.634521484375	71.85470581054688	881.812744140625	1387.447021484375	-113.7376480102539	974.9468994140625	1391.160766601562	-160.8230133056641	943.6731567382812	1276.341796875	-237.6786499023438	936.8012084960938	1074.261596679688	-254.2891082763672	869.1996459960938	1063.776123046875	-199.4378051757812	1026.103271484375	860.5718994140625	-200.1010284423828	996.5986938476562	845.907958984375	-263.7568054199219	954.86865234375	972.2271728515625	-261.6272583007812	1008.225402832031	758.6076049804688	-259.8492736816406	1059.413452148438	765.0401000976562	-218.8993835449219	959.18115234375	1410.0205078125	152.0160064697266	949.4408569335938	1356.20166015625	221.2612762451172	925.7747802734375	1097.24755859375	291.6964721679688	889.0396728515625	1083.44482421875	202.5614929199219	1031.914794921875	875.9763793945312	251.3477478027344	989.7135009765625	871.8740234375	325.15625	950.8177490234375	1030.516479492188	307.8138427734375	1042.86279296875	695.3462524414062	253.1765594482422	1068.791259765625	763.5272216796875	273.7306518554688	1019.306823730469	760.4598999023438	322.6439208984375	915.9036865234375	1576.34765625	66.69944763183594	1082.100952148438	1622.663940429688	-56.15768432617188	1084.515869140625	1617.047485351562	35.72322082519531	913.558837890625	1573.40380859375	-79.236328125	915.5496826171875	935.0399780273438	-163.8273468017578	927.098876953125	942.9879150390625	208.3742065429688	1049.096923828125	951.814453125	142.8807220458984	1034.703369140625	477.7418212890625	-148.0721435546875	1008.516479492188	617.1759033203125	-164.717529296875	900.0254516601562	43.25051879882812	-141.3752746582031	964.5595703125	255.3355255126953	-157.1710662841797	1108.088012695312	26.38879013061523	-82.37285614013672	1034.956420898438	20.39102745056152	-43.11589431762695	1023.482421875	35.43547821044922	-153.2984924316406	853.9342041015625	37.22554016113281	-82.93668365478516	1002.547180175781	472.4709777832031	160.2372894287109	1009.513061523438	736.2952270507812	200.7410583496094	911.2782592773438	37.78422164916992	116.4043655395508	1008.188232421875	346.2933959960938	142.0820617675781	1110.172241210938	31.94803810119629	72.99353790283203	1053.550903320312	28.90246772766113	30.77115440368652	1014.356018066406	28.51315116882324	141.4808349609375	861.4296875	35.05720520019531	64.37023162841797	1047.477905273438	673.4044799804688	-196.6408386230469	1046.257202148438	949.81689453125	-108.3417358398438	nan	nan	nan	
65	0.64	826.3400268554688	988.3424072265625	103.0006637573242	834.1035766601562	979.7852783203125	-71.66831970214844	849.98291015625	1063.818237304688	15.03507804870605	1109.910766601562	1238.478515625	15.1469087600708	840.7072143554688	1185.461669921875	13.19461822509766	893.5414428710938	1425.66796875	-9.08283519744873	1051.445556640625	1342.32080078125	6.133545398712158	835.3113403320312	1295.988403320312	73.04355621337891	880.7930297851562	1387.320434570312	-112.6064453125	973.7135620117188	1390.661254882812	-159.9819030761719	941.3588256835938	1276.06103515625	-236.6677551269531	933.1773071289062	1074.140625	-253.2467498779297	865.763916015625	1063.94287109375	-198.0724029541016	1022.527160644531	860.5199584960938	-199.3143463134766	992.7310791015625	845.7239379882812	-262.7742919921875	951.02392578125	972.1342163085938	-260.62255859375	1004.396179199219	758.4554443359375	-258.7909545898438	1055.777709960938	764.9478759765625	-218.0934143066406	958.948486328125	1410.019287109375	152.7967071533203	949.2095947265625	1356.252807617188	222.1408996582031	924.688232421875	1097.388671875	292.6482238769531	887.7972412109375	1083.751342773438	203.6230926513672	1029.9755859375	875.7755126953125	251.9953765869141	987.9326782226562	871.7980346679688	325.9075927734375	949.6098022460938	1030.573364257812	308.7339782714844	1040.57568359375	695.081787109375	253.8956451416016	1066.616333007812	763.2455444335938	274.3274841308594	1017.224914550781	760.3250732421875	323.3640747070312	915.1213989257812	1575.823120117188	67.06546783447266	1081.148803710938	1622.6806640625	-55.76352310180664	1083.599609375	1617.0546875	36.08322525024414	912.7417602539062	1572.996704101562	-78.91707611083984	912.8776245117188	934.5419311523438	-163.2196807861328	925.1287231445312	942.9949951171875	209.1775665283203	1047.086791992188	951.7333984375	143.7104644775391	1035.840087890625	477.7894897460938	-147.7527465820312	1008.342407226562	617.1517944335938	-164.2114410400391	900.1227416992188	43.64225769042969	-141.3343811035156	965.2025756835938	255.5355834960938	-157.0415496826172	1108.13427734375	26.34343910217285	-82.36249542236328	1034.992919921875	20.37801551818848	-43.14914321899414	1023.566040039062	35.50718688964844	-153.302978515625	854.0590209960938	37.73210144042969	-82.87495422363281	1001.22802734375	472.5303344726562	160.7848052978516	1007.777221679688	736.2901000976562	201.6383056640625	911.2476806640625	37.79069900512695	116.4209213256836	1007.238342285156	346.369384765625	142.35791015625	1110.164672851562	31.97042083740234	73.00178527832031	1053.524658203125	28.90264511108398	30.75883483886719	1014.335632324219	28.58158874511719	141.4548950195312	861.4217529296875	34.97290420532227	64.38101959228516	1044.122436523438	673.301025390625	-195.6089172363281	1044.307250976562	949.5195922851562	-107.5059967041016	nan	nan	nan	
